<svg xmlns="http://www.w3.org/2000/svg" viewBox="0 0 24 24" width="28" height="28" fill="currentColor">
    <path d="M20.32 4.37A19.8 19.8 0 0 0 15.36 3c-.25.44-.47.9-.65 1.37a18.42 18.42 0 0 0-5.44 0A14.08 14.08 0 0 0 8.63 3 19.93 19.93 0 0 0 3.68 4.37C.53 9.02-.32 13.54.1 18.02a19.9 19.9 0 0 0 6.07 3.06 14.6 14.6 0 0 0 1.3-2.1 12.86 12.86 0 0 1-2.04-.98c.17-.12.34-.25.5-.38a14.22 14.22 0 0 0 12.13 0c.17.13.34.26.5.38a12.94 12.94 0 0 1-2.05.98c.38.73.81 1.43 1.3 2.1a19.82 19.82 0 0 0 6.07-3.06c.5-5.18-.84-9.67-3.55-13.65zM8 15.27c-1.18 0-2.16-1.08-2.16-2.4s.95-2.4 2.15-2.4 2.18 1.08 2.16 2.4c-.01 1.32-.96 2.4-2.16 2.4zm7.99 0c-1.18 0-2.15-1.08-2.15-2.4s.95-2.4 2.15-2.4 2.17 1.08 2.15 2.4c-.01 1.32-.95 2.4-2.15 2.4z"/>
</svg>
